/* XPM */
static char * grass_xpm[] = {
"32 32 128 2",
"  	c #8BB312",
". 	c #88AF13",
"+ 	c #8AB212",
"@ 	c #88B013",
"# 	c #8BB413",
"$ 	c #8DB422",
"% 	c #BCCC8C",
"& 	c #93B73A",
"* 	c #8DB716",
"= 	c #8AB213",
"- 	c #8BB316",
"; 	c #8DB615",
"> 	c #8CB413",
", 	c #8CB514",
"' 	c #8CB615",
") 	c #8DB61A",
"! 	c #8DB51B",
"~ 	c #8BB213",
"{ 	c #8EB817",
"] 	c #8DB616",
"^ 	c #95B845",
"/ 	c #94B83E",
"( 	c #8DB617",
"_ 	c #8AB314",
": 	c #A0BE5F",
"< 	c #A8C066",
"[ 	c #9DBB4F",
"} 	c #90B62F",
"| 	c #8CB316",
"1 	c #C0CD92",
"2 	c #D0D1A0",
"3 	c #8EB525",
"4 	c #8DB41E",
"5 	c #8FB821",
"6 	c #8BB313",
"7 	c #8DB312",
"8 	c #8EB314",
"9 	c #A1BD58",
"0 	c #92B739",
"a 	c #9DBD59",
"b 	c #A6C26C",
"c 	c #8CB31A",
"d 	c #89B112",
"e 	c #AAAF23",
"f 	c #BBB03E",
"g 	c #8CB313",
"h 	c #8CB515",
"i 	c #8DB415",
"j 	c #90B51A",
"k 	c #89B012",
"l 	c #88B012",
"m 	c #87AE13",
"n 	c #87AF13",
"o 	c #9FB01A",
"p 	c #9BB11B",
"q 	c #8AB112",
"r 	c #8AB114",
"s 	c #A0BE5C",
"t 	c #BDBC65",
"u 	c #B0B030",
"v 	c #8CB414",
"w 	c #8AB113",
"x 	c #8CB319",
"y 	c #B7C67E",
"z 	c #B2C77E",
"A 	c #8CB315",
"B 	c #8AB11B",
"C 	c #87AE12",
"D 	c #8DB413",
"E 	c #95B218",
"F 	c #88AF12",
"G 	c #D1AD45",
"H 	c #97B41E",
"I 	c #8BB318",
"J 	c #A9C06F",
"K 	c #8EB426",
"L 	c #8FB417",
"M 	c #97B94A",
"N 	c #8DB41F",
"O 	c #8DB619",
"P 	c #8DB41C",
"Q 	c #8CB518",
"R 	c #8DB423",
"S 	c #9CBD55",
"T 	c #B0C572",
"U 	c #8BB314",
"V 	c #90B434",
"W 	c #D0D19F",
"X 	c #9FBD5D",
"Y 	c #8EB424",
"Z 	c #8EB528",
"` 	c #C4D29D",
" .	c #91B537",
"..	c #90B62E",
"+.	c #98BA49",
"@.	c #8BB414",
"#.	c #C4CF95",
"$.	c #C2CD90",
"%.	c #8CB41A",
"&.	c #98BC46",
"*.	c #98BA4A",
"=.	c #8BB315",
"-.	c #8DB717",
";.	c #89B113",
">.	c #8DB42C",
",.	c #8FB52C",
"'.	c #D3D6AC",
").	c #99BA4D",
"!.	c #8CB317",
"~.	c #87AF12",
"{.	c #95B93E",
"].	c #BFCC8E",
"^.	c #8BB31C",
"/.	c #86AD13",
"(.	c #8EB425",
"_.	c #A9B01E",
":.	c #9BB11A",
"<.	c #B0B442",
"[.	c #A8B025",
"}.	c #89B216",
"|.	c #92B838",
"1.	c #8EB616",
"2.	c #9AB953",
"3.	c #BDC985",
"4.	c #8DB421",
"5.	c #B0C576",
"6.	c #90B630",
"7.	c #8EB514",
"          .           + @               #   $ % &               ",
"                      * =                     - ; >             ",
"      ;                           @ +   ;                       ",
"                ,     '     ) !   ~ @               {           ",
"      ] ^ / ( = _     #     : <                           #     ",
"  [ } | 1 2 3         .     4 5 6 ,   7 8 * ;                   ",
"6 9 0   a b c   ;               d     e f g             *       ",
"+                     *   h ,   + >   i j k l     m       #     ",
",     . n   *           + l   o p ;               #     ; #   ; ",
"      ; >   ;     ; . q   r s t u                 v w   ;       ",
"                m   + q   x y z A         #       ; @ +         ",
"                #   h *     B c l q *   *     C           l l   ",
"  ] @             *       ; ;                 >                 ",
"    k   D               {     l q                               ",
"        E g     .             =     6 ,             F       ,   ",
"      8 G H     ,       m +   *   I J K               #         ",
"  q     L     + _                 6 M N * , #     O P , Q       ",
"  q q   '       v           >                   R S T U     , # ",
"        >                   h               l V W X Y           ",
"  ;                 h   h     ;   g         ' Z `  .F           ",
"  ..+.    l         ,   @ +       ,         g   ) @.            ",
"x #.$.%.        +     *       @ 6 ,   ,                         ",
"v &.*.6 ; >     =.,           = -.;.U >.I       l   *       ,   ",
"        ;     v                     ,.'.).          v           ",
"                                    !./ x               + F     ",
"                k !.3 6 > h               * , h       ;         ",
"        ~.d     q {.].^.            d F                   '     ",
"/.                =.(.;.        _.:.                  ,         ",
"  >     ,                   +   <.[.    }.            |.*.U     ",
"      F +         1.,     d .       .                 2.3.%.    ",
"; =                             h             6       U 4.      ",
"  F           +                 ,       , * N 5.6.  7.          "};
