/* XPM */
static char * link_xpm[] = {
"32 32 522 2",
"  	c #8BB312",
". 	c #88B012",
"+ 	c #88AF13",
"@ 	c #8CB413",
"# 	c #8CB514",
"$ 	c #8DB423",
"% 	c #BECC8F",
"& 	c #93B739",
"* 	c #8DB716",
"= 	c #8AB213",
"- 	c #8AB212",
"; 	c #8BB317",
"> 	c #8CB716",
", 	c #8BB514",
"' 	c #8BB413",
") 	c #8CB615",
"! 	c #89B214",
"~ 	c #88B011",
"{ 	c #8CB51A",
"] 	c #8CB51C",
"^ 	c #88B013",
"/ 	c #8BB513",
"( 	c #8CB816",
"_ 	c #8BB412",
": 	c #8BB313",
"< 	c #8DB615",
"[ 	c #97BA49",
"} 	c #94B83F",
"| 	c #8DB717",
"1 	c #83A911",
"2 	c #789D11",
"3 	c #325902",
"4 	c #2A5301",
"5 	c #2A5401",
"6 	c #244201",
"7 	c #74864D",
"8 	c #94AB58",
"9 	c #9DBB4F",
"0 	c #90B62F",
"a 	c #8CB316",
"b 	c #BECD92",
"c 	c #CFCF9F",
"d 	c #6B8821",
"e 	c #4B6C05",
"f 	c #337D01",
"g 	c #51BF00",
"h 	c #52C200",
"i 	c #48AC00",
"j 	c #40930D",
"k 	c #45910E",
"l 	c #769B0E",
"m 	c #8CB312",
"n 	c #8EB314",
"o 	c #A1BD58",
"p 	c #92B73A",
"q 	c #9DBB59",
"r 	c #A1A362",
"s 	c #725408",
"t 	c #705B00",
"u 	c #777601",
"v 	c #61740E",
"w 	c #5F740E",
"x 	c #5A750D",
"y 	c #43A601",
"z 	c #52C400",
"A 	c #4EBA00",
"B 	c #385203",
"C 	c #72940D",
"D 	c #A9B023",
"E 	c #BDB03E",
"F 	c #8BB011",
"G 	c #979409",
"H 	c #DCC500",
"I 	c #F8E600",
"J 	c #FAD100",
"K 	c #FAC201",
"L 	c #FBB901",
"M 	c #F2B201",
"N 	c #7E6D00",
"O 	c #1F6800",
"P 	c #0B6900",
"Q 	c #014B00",
"R 	c #203201",
"S 	c #83AA11",
"T 	c #8DB515",
"U 	c #8FB519",
"V 	c #89B112",
"W 	c #87AF12",
"X 	c #86AD12",
"Y 	c #8BB112",
"Z 	c #969309",
"` 	c #E3CE01",
" .	c #FBE900",
"..	c #FCEA00",
"+.	c #FCE600",
"@.	c #FECA00",
"#.	c #FFBC00",
"$.	c #FDBB00",
"%.	c #E6A800",
"&.	c #9B7900",
"*.	c #146200",
"=.	c #006200",
"-.	c #0E4700",
";.	c #62800B",
">.	c #8AB112",
",.	c #8BB515",
"'.	c #8BB414",
").	c #8BB212",
"!.	c #8C970B",
"~.	c #D8C000",
"{.	c #F7E500",
"].	c #F7E600",
"^.	c #DDC600",
"/.	c #E3CD00",
"(.	c #FBE600",
"_.	c #FAC300",
":.	c #F9B701",
"<.	c #BF8712",
"[.	c #DB9F0B",
"}.	c #6C6000",
"|.	c #0E6300",
"1.	c #005500",
"2.	c #213101",
"3.	c #65830D",
"4.	c #607A2E",
"5.	c #5F7729",
"6.	c #7EA30F",
"7.	c #8BAF11",
"8.	c #8C7904",
"9.	c #8B7504",
"0.	c #595003",
"a.	c #5A4A19",
"b.	c #C5AF01",
"c.	c #F9E700",
"d.	c #C7B800",
"e.	c #4F3B00",
"f.	c #845D1E",
"g.	c #E6B56B",
"h.	c #C59650",
"i.	c #CF9400",
"j.	c #8B6000",
"k.	c #166200",
"l.	c #006100",
"m.	c #213401",
"n.	c #8CB616",
"o.	c #89B114",
"p.	c #5E7B0E",
"q.	c #3B493E",
"r.	c #AAB6B3",
"s.	c #ABAEAC",
"t.	c #77990E",
"u.	c #8AB011",
"v.	c #89AF11",
"w.	c #5B7010",
"x.	c #907041",
"y.	c #A18807",
"z.	c #C8B101",
"A.	c #3E3503",
"B.	c #5A3801",
"C.	c #936F3B",
"D.	c #E9B86F",
"E.	c #C59652",
"F.	c #CC9200",
"G.	c #8B5D00",
"H.	c #184701",
"I.	c #005400",
"J.	c #89B113",
"K.	c #89B012",
"L.	c #58730D",
"M.	c #5C6962",
"N.	c #6F7F79",
"O.	c #717F7A",
"P.	c #738863",
"Q.	c #80A610",
"R.	c #769A10",
"S.	c #5C771F",
"T.	c #5F7A29",
"U.	c #637C31",
"V.	c #3F4D1D",
"W.	c #3B3732",
"X.	c #A47E50",
"Y.	c #927048",
"Z.	c #757D7C",
"`.	c #131515",
" +	c #656966",
".+	c #B98C4B",
"++	c #C29350",
"@+	c #C99001",
"#+	c #976718",
"$+	c #7D6238",
"%+	c #014600",
"&+	c #87AE11",
"*+	c #8AB315",
"=+	c #63820E",
"-+	c #47564B",
";+	c #B3BCBA",
">+	c #95A29E",
",+	c #637654",
"'+	c #7EA212",
")+	c #668312",
"!+	c #808C8B",
"~+	c #99A5A1",
"{+	c #BFC2BE",
"]+	c #918780",
"^+	c #F0E2D3",
"/+	c #F4C58D",
"(+	c #FACC96",
"_+	c #E5DCD2",
":+	c #514537",
"<+	c #BDB5AA",
"[+	c #ECBE7B",
"}+	c #B18B52",
"|+	c #785319",
"1+	c #CB9D56",
"2+	c #3A4D15",
"3+	c #045A00",
"4+	c #3B5104",
"5+	c #65830C",
"6+	c #293805",
"7+	c #799C0F",
"8+	c #607D0E",
"9+	c #39483C",
"0+	c #768781",
"a+	c #788581",
"b+	c #57674B",
"c+	c #87AD13",
"d+	c #668415",
"e+	c #A4A8A7",
"f+	c #604D3E",
"g+	c #6F4C29",
"h+	c #694720",
"i+	c #B18E64",
"j+	c #E6B77F",
"k+	c #FFCE93",
"l+	c #FECF96",
"m+	c #F3C382",
"n+	c #EDBD75",
"o+	c #EFBD72",
"p+	c #AF8A52",
"q+	c #8D6C36",
"r+	c #C0A615",
"s+	c #4C6201",
"t+	c #174C01",
"u+	c #7EA312",
"v+	c #24340C",
"w+	c #57645F",
"x+	c #2D3822",
"y+	c #516B0B",
"z+	c #5A6860",
"A+	c #70807A",
"B+	c #6E7D78",
"C+	c #6E835F",
"D+	c #81A713",
"E+	c #678418",
"F+	c #C0C0C0",
"G+	c #674F3D",
"H+	c #825101",
"I+	c #825100",
"J+	c #604216",
"K+	c #D2AA76",
"L+	c #FACA90",
"M+	c #F9C98E",
"N+	c #EFBE78",
"O+	c #EBB970",
"P+	c #E1B26B",
"Q+	c #706632",
"R+	c #405F00",
"S+	c #8F9E00",
"T+	c #405B07",
"U+	c #1C4710",
"V+	c #577619",
"W+	c #1D3514",
"X+	c #768581",
"Y+	c #2D3331",
"Z+	c #1A2412",
"`+	c #798784",
" @	c #81918D",
".@	c #667A57",
"+@	c #7CA112",
"@@	c #84591E",
"#@	c #85602C",
"$@	c #57581A",
"%@	c #AAA025",
"&@	c #3D3E1E",
"*@	c #3D401D",
"=@	c #372F16",
"-@	c #383915",
";@	c #322F14",
">@	c #39890E",
",@	c #4CBC00",
"'@	c #47AB04",
")@	c #33820D",
"!@	c #49B602",
"~@	c #51BF02",
"{@	c #41990B",
"]@	c #274124",
"^@	c #402F08",
"/@	c #704F09",
"(@	c #2D3725",
"_@	c #2F3A2A",
":@	c #83AA18",
"<@	c #8CB614",
"[@	c #54453C",
"}@	c #8B8C85",
"|@	c #C3CCCA",
"1@	c #496C4C",
"2@	c #ACBBAF",
"3@	c #6DA666",
"4@	c #349102",
"5@	c #104F0D",
"6@	c #3B9606",
"7@	c #1B5C0C",
"8@	c #47A908",
"9@	c #379A01",
"0@	c #193F15",
"a@	c #124F0E",
"b@	c #185A0D",
"c@	c #389B02",
"d@	c #52C300",
"e@	c #4BA801",
"f@	c #A07A00",
"g@	c #A77705",
"h@	c #473914",
"i@	c #182B18",
"j@	c #4B5D2C",
"k@	c #8DA94F",
"l@	c #BEBEBE",
"m@	c #51493F",
"n@	c #C5BBAC",
"o@	c #EDF1EF",
"p@	c #6CAF57",
"q@	c #E8EDEA",
"r@	c #94A093",
"s@	c #073F01",
"t@	c #064606",
"u@	c #2B710D",
"v@	c #41980B",
"w@	c #53C500",
"x@	c #389B01",
"y@	c #163115",
"z@	c #4C6511",
"A@	c #6A8A14",
"B@	c #2A580F",
"C@	c #368B09",
"D@	c #339301",
"E@	c #30350F",
"F@	c #483612",
"G@	c #1D2F1E",
"H@	c #697973",
"I@	c #5D6966",
"J@	c #668310",
"K@	c #658413",
"L@	c #85908F",
"M@	c #564936",
"N@	c #C6B69C",
"O@	c #DCE2E1",
"P@	c #66725A",
"Q@	c #D4DAD9",
"R@	c #A09994",
"S@	c #3F2712",
"T@	c #274C0E",
"U@	c #3E710C",
"V@	c #68C400",
"W@	c #6AC60C",
"X@	c #66C017",
"Y@	c #454F18",
"Z@	c #304007",
"`@	c #0C1E0D",
" #	c #242D14",
".#	c #B89257",
"+#	c #A0824B",
"@#	c #2E3C07",
"##	c #3A4728",
"$#	c #34421F",
"%#	c #68870C",
"&#	c #7D9E2B",
"*#	c #768374",
"=#	c #72736C",
"-#	c #6D6C66",
";#	c #8C908A",
">#	c #A98B5F",
",#	c #8A8F89",
"'#	c #6A6258",
")#	c #6F716C",
"!#	c #896939",
"~#	c #E1B82F",
"{#	c #F9D400",
"]#	c #E0B933",
"^#	c #C1974F",
"/#	c #B68B4B",
"(#	c #678011",
"_#	c #668317",
":#	c #65736E",
"<#	c #1F2E21",
"[#	c #485F0D",
"}#	c #698114",
"|#	c #779514",
"1#	c #8AB215",
"2#	c #8AB314",
"3#	c #8CB319",
"4#	c #C2CD95",
"5#	c #8C8A74",
"6#	c #B8B9B5",
"7#	c #533E2E",
"8#	c #4A2F16",
"9#	c #4B2F15",
"0#	c #4F3A2A",
"a#	c #626D69",
"b#	c #4D7910",
"c#	c #9ABC00",
"d#	c #B8C300",
"e#	c #99BB00",
"f#	c #6B9800",
"g#	c #535E00",
"h#	c #5E7C09",
"i#	c #7A9E1B",
"j#	c #6A796A",
"k#	c #4C641C",
"l#	c #7B9F0F",
"m#	c #8CB414",
"n#	c #98BC47",
"o#	c #91B247",
"p#	c #56604C",
"q#	c #7A7D78",
"r#	c #4D341F",
"s#	c #4A2E15",
"t#	c #503927",
"u#	c #7E827B",
"v#	c #202D23",
"w#	c #0A6402",
"x#	c #116B02",
"y#	c #106B02",
"z#	c #036002",
"A#	c #1C4C03",
"B#	c #67860D",
"C#	c #85AC13",
"D#	c #8AB02B",
"E#	c #8BB318",
"F#	c #82A814",
"G#	c #718661",
"H#	c #787B75",
"I#	c #A7A39F",
"J#	c #7C837E",
"K#	c #4D5A53",
"L#	c #27382A",
"M#	c #6E7E77",
"N#	c #48574C",
"O#	c #5E7D14",
"P#	c #618015",
"Q#	c #435D12",
"R#	c #162D17",
"S#	c #4A5950",
"T#	c #546355",
"U#	c #88AC2C",
"V#	c #D3D7AB",
"W#	c #99BA4C",
"X#	c #7A9E11",
"Y#	c #728467",
"Z#	c #C0C7C6",
"`#	c #808984",
" $	c #7B8681",
".$	c #3B4B3F",
"+$	c #8D9C99",
"@$	c #6C834F",
"#$	c #789B0E",
"$$	c #22320E",
"%$	c #6F7C77",
"&$	c #929F9A",
"*$	c #658024",
"=$	c #93B63F",
"-$	c #8CB419",
";$	c #81A712",
">$	c #504B31",
",$	c #D7AC6B",
"'$	c #AD864D",
")$	c #292F1B",
"!$	c #69832D",
"~$	c #88AF12",
"{$	c #8CB515",
"]$	c #2D3A03",
"^$	c #674820",
"/$	c #B89158",
"($	c #44401C",
"_$	c #86AD11",
":$	c #86AE12",
"<$	c #567008",
"[$	c #3C260C",
"}$	c #684512",
"|$	c #51390E",
"1$	c #6D8531",
"2$	c #BECA8E",
"3$	c #8BB31C",
"4$	c #5F7B0A",
"5$	c #4D3408",
"6$	c #63400A",
"7$	c #39240C",
"8$	c #5E7A09",
"9$	c #87AE13",
"0$	c #75970D",
"a$	c #66840B",
"b$	c #66840A",
"c$	c #68870B",
"d$	c #89B115",
"e$	c #8EB425",
"f$	c #8E8018",
"g$	c #7E8218",
"h$	c #779A0E",
"i$	c #B0B342",
"j$	c #A8B026",
"k$	c #89B216",
"l$	c #91B838",
"m$	c #98BA4A",
"n$	c #8BB314",
"o$	c #89B213",
"p$	c #8DB816",
"q$	c #99B953",
"r$	c #BDC987",
"s$	c #8CB41A",
"t$	c #8DB715",
"u$	c #8DB421",
"v$	c #8DB420",
"w$	c #B2C679",
"          .             +             @ #   $ % &               ",
"                      * =         -           ; > ,             ",
"    ' )                           + -   )                       ",
"                # . . ! . ~ { ]     ^   /           ( _   @     ",
"    : < [ } | 1 2 3 4 5 4 6 7 8 -                       @ #     ",
"  9 0 a b c d e f g h h h i j k l )   m n ( ) #                 ",
": o p   q r s t u v w w x y z A B C   D E '             *       ",
"      F G H I I J K L L M N O P Q R S T U V W     X       #     ",
",   Y Z `  ... . .+.@.#.$.%.&.*.=.-.;.>.          )   : ,.'.  # ",
"  ).!.~.{.I ].^./.(._.:.<.[.%.}.|.1.2.~           , W 3.4.5.6.  ",
"    7.8.9.0.a.b.c.d.e.f.g.h.i.j.k.l.m.. : n.      o.p.q.r.s.t.  ",
"    - u.v.w.x.y.z.A.B.C.D.E.F.G.H.I.m.J.<     X K.L.M.N.O.P.Q.  ",
"  R.S.T.U.V.W.X.Y.Z.`. +.+++@+#+$+%+m.&+K.).  *+=+-+;+>+,+'+    ",
"  )+!+~+{+]+^+/+(+_+:+<+[+}+|+1+2+3+4+5+6+7+&+8+9+0+a+b+c+      ",
"  d+e+f+g+h+i+j+k+l+m+n+o+p+q+r+s+t+u+v+w+x+y+z+A+B+C+D+  ' )   ",
"  E+F+G+H+I+J+K+L+M+N+O+P+Q+R+S+T+U+V+W+X+Y+Z+`+ @.@+@# '       ",
"  E+F+G+@@#@$@%@&@*@=@-@;@>@,@'@)@!@~@{@]@^@/@(@_@:@] <@<       ",
"  E+F+[@}@|@1@2@3@4@5@6@7@8@9@0@a@b@c@d@e@f@g@h@i@j@k@:     ' , ",
"  E+l@m@n@o@p@q@r@s@t@u@v@w@x@y@z@A@B@C@D@E@F@G@H@I@J@      : _ ",
"  K@L@M@N@O@P@Q@R@S@T@U@V@W@X@Y@1 X Z@`@ #.#+#@###$#%#          ",
"  &#*#=#-#;#>#,#'#)#!#~#{#]#^#/#(#_#:#<#[#}#|#. 1#2#>.          ",
"3#4#5#6#7#8#9#8#0#a#b#c#d#e#f#g#h#i#j#k#l#      -           _   ",
"m#n#o#p#q#r#s#t#u#v#w#x#x#x#y#z#A#B#C#D#E#      ^   <     ' )   ",
"      F#G#H#I#J#K#L#M#N#O#P#Q#R#S#T#U#V#W#          #           ",
"        X#Y#Z#`# $.$+$@$K.: #$$$%$&$*$=$-$              V W     ",
"        ).;$>$,$'$)$!$~$' {$K.]$^$/$($_$  ( ' >     ' *         ",
"        :$<$[$}$|$1$2$3$    >.4$5$6$7$8$-                 )     ",
"9$      ).0$a$b$c$d$e$+       K.f$g$a$h$              {$  #     ",
"- # @ ' #                       i$j$    k$            l$m$n$    ",
"      W o$      ' p$#     V W     ).+                 q$r$s$    ",
"t$J.              '             # _       _   :       n$u$      ",
"  W                             #     ' , > v$w$0   *           "};
