/* XPM */
static char * ruby_xpm[] = {
"32 32 325 2",
"  	c #8BB312",
". 	c #88B012",
"+ 	c #88AF13",
"@ 	c #8CB413",
"# 	c #8CB514",
"$ 	c #8DB423",
"% 	c #BECC8F",
"& 	c #93B739",
"* 	c #8DB716",
"= 	c #8AB213",
"- 	c #8AB212",
"; 	c #8BB317",
"> 	c #8CB716",
", 	c #8BB514",
"' 	c #8BB413",
") 	c #8CB615",
"! 	c #8CB515",
"~ 	c #8DB61A",
"{ 	c #8CB51C",
"] 	c #88B013",
"^ 	c #8BB513",
"/ 	c #8CB816",
"( 	c #8BB412",
"_ 	c #8BB313",
": 	c #8DB615",
"< 	c #97BA49",
"[ 	c #94B83F",
"} 	c #8DB717",
"| 	c #8AB315",
"1 	c #A0BE5E",
"2 	c #A9C066",
"3 	c #8CB312",
"4 	c #8FB313",
"5 	c #93B214",
"6 	c #9BB116",
"7 	c #A3B217",
"8 	c #8DB312",
"9 	c #9DBB4F",
"0 	c #90B62F",
"a 	c #8CB316",
"b 	c #BECD92",
"c 	c #D0D1A0",
"d 	c #8EB525",
"e 	c #8CB313",
"f 	c #8FB213",
"g 	c #96B320",
"h 	c #A0B425",
"i 	c #A6AF19",
"j 	c #B1AE1C",
"k 	c #B8AB1D",
"l 	c #BEAB1E",
"m 	c #B2A21B",
"n 	c #93B216",
"o 	c #A1BD58",
"p 	c #92B73A",
"q 	c #9DBD59",
"r 	c #A6C26C",
"s 	c #8CB319",
"t 	c #8CB314",
"u 	c #A9BA30",
"v 	c #B3AD20",
"w 	c #B9AB1D",
"x 	c #BDAA1E",
"y 	c #BFA91F",
"z 	c #C0A91F",
"A 	c #B6A01B",
"B 	c #AB9719",
"C 	c #9BA717",
"D 	c #9DBC1A",
"E 	c #DBCE3F",
"F 	c #C2AC25",
"G 	c #C1AA23",
"H 	c #C2AB29",
"I 	c #B8A21D",
"J 	c #AC9719",
"K 	c #AB9619",
"L 	c #A49D18",
"M 	c #8BAE13",
"N 	c #86AD12",
"O 	c #87AF14",
"P 	c #8AB312",
"Q 	c #C4C81F",
"R 	c #EFD531",
"S 	c #C6B02F",
"T 	c #C9B541",
"U 	c #D4C259",
"V 	c #E0CF6E",
"W 	c #E4D477",
"X 	c #B6A236",
"Y 	c #A99819",
"Z 	c #94AC14",
"` 	c #98B517",
" .	c #E9D828",
"..	c #FAE154",
"+.	c #EEDE80",
"@.	c #F7E88E",
"#.	c #FCED94",
"$.	c #FEF097",
"%.	c #FBED94",
"&.	c #C8B759",
"*.	c #AB961B",
"=.	c #9EA417",
"-.	c #8CB212",
";.	c #89B212",
">.	c #C0C51F",
",.	c #FBE135",
"'.	c #FFEC7E",
").	c #FFF198",
"!.	c #E1D178",
"~.	c #AE9924",
"{.	c #A59C18",
"].	c #8FB013",
"^.	c #98B816",
"/.	c #E8D728",
"(.	c #FFE65B",
"_.	c #FFF197",
":.	c #FFF29D",
"<.	c #F4E692",
"[.	c #B7A440",
"}.	c #93A616",
"|.	c #89B013",
"1.	c #BEC620",
"2.	c #FBE138",
"3.	c #FEEE96",
"4.	c #FEF6BA",
"5.	c #FCF4B8",
"6.	c #CDBF73",
"7.	c #AB971B",
"8.	c #A0A419",
"9.	c #8CB414",
"0.	c #89B012",
"a.	c #8CB715",
"b.	c #97B715",
"c.	c #E6D627",
"d.	c #FEE659",
"e.	c #FEF2A7",
"f.	c #FEF4B2",
"g.	c #FEF4B1",
"h.	c #E3D68A",
"i.	c #B39D23",
"j.	c #B19B1A",
"k.	c #B19A1A",
"l.	c #AB9F1A",
"m.	c #94B218",
"n.	c #B9C21E",
"o.	c #FAE034",
"p.	c #FEEC83",
"q.	c #FFF2A4",
"r.	c #FEF2A5",
"s.	c #FFF2A5",
"t.	c #FDF0A2",
"u.	c #DBCA6C",
"v.	c #C0A921",
"w.	c #BFA81E",
"x.	c #ACAC1A",
"y.	c #8EB314",
"z.	c #D1AD45",
"A.	c #97B41E",
"B.	c #95B716",
"C.	c #E2D62E",
"D.	c #FEE662",
"E.	c #FEF4B4",
"F.	c #FEF7BE",
"G.	c #EEE5AA",
"H.	c #B09E42",
"I.	c #BAA41D",
"J.	c #BBAA1E",
"K.	c #99B116",
"L.	c #90B518",
"M.	c #B4C33B",
"N.	c #F9E776",
"O.	c #FFF19D",
"P.	c #FEF6BD",
"Q.	c #FEF7C1",
"R.	c #FCF5BE",
"S.	c #CBBF83",
"T.	c #93801E",
"U.	c #A08C17",
"V.	c #B9A41D",
"W.	c #AEAD1B",
"X.	c #8EB313",
"Y.	c #8DB619",
"Z.	c #8CB614",
"`.	c #C3CE64",
" +	c #FDF098",
".+	c #FEF091",
"++	c #FEF4AF",
"@+	c #F0E7B0",
"#+	c #A5964C",
"$+	c #907D14",
"%+	c #907D13",
"&+	c #9C8D17",
"*+	c #97AE16",
"=+	c #9CBD55",
"-+	c #B0C572",
";+	c #AAC03B",
">+	c #F7E871",
",+	c #FFEB6E",
"'+	c #FEF7C0",
")+	c #FDF5BF",
"!+	c #D0C68A",
"~+	c #928020",
"{+	c #8F7C13",
"]+	c #8E9113",
"^+	c #88AD13",
"/+	c #90B435",
"(+	c #D0D19F",
"_+	c #9FBE5D",
":+	c #8EB424",
"<+	c #97B821",
"[+	c #EADF5C",
"}+	c #FFEB68",
"|+	c #FFED83",
"1+	c #FEF6BC",
"2+	c #F3EBB3",
"3+	c #A89951",
"4+	c #8F8013",
"5+	c #8CA613",
"6+	c #8EB529",
"7+	c #C5D29D",
"8+	c #91B537",
"9+	c #87AE13",
"0+	c #90B62E",
"a+	c #97BA4A",
"b+	c #8EB417",
"c+	c #D3D34E",
"d+	c #FEEA67",
"e+	c #FFEC74",
"f+	c #FDF3B0",
"g+	c #FBF4BD",
"h+	c #F6EEB8",
"i+	c #F2E9B1",
"j+	c #E7DEA4",
"k+	c #C7BC7F",
"l+	c #928022",
"m+	c #8E8F13",
"n+	c #8BB012",
"o+	c #8DB61B",
"p+	c #C5CF97",
"q+	c #C2CC90",
"r+	c #8CB41A",
"s+	c #B7C53D",
"t+	c #FBE866",
"u+	c #FDE969",
"v+	c #D5C775",
"w+	c #BAAE73",
"x+	c #A99D5D",
"y+	c #A5964B",
"z+	c #9E8E38",
"A+	c #938122",
"B+	c #8E7B13",
"C+	c #8DA313",
"D+	c #98BC47",
"E+	c #98BA4B",
"F+	c #9FBB2B",
"G+	c #F2E461",
"H+	c #F5E163",
"I+	c #9C8D31",
"J+	c #817215",
"K+	c #827212",
"L+	c #8E7D12",
"M+	c #928012",
"N+	c #917F12",
"O+	c #8C7A12",
"P+	c #8F8C22",
"Q+	c #8CB018",
"R+	c #91B51A",
"S+	c #DFD956",
"T+	c #E7D45B",
"U+	c #87781E",
"V+	c #81710F",
"W+	c #8D7B11",
"X+	c #8E7C12",
"Y+	c #8F7F20",
"Z+	c #C0BB8C",
"`+	c #99BA4B",
" @	c #C3CB45",
".@	c #D0C04F",
"+@	c #7D6E13",
"@@	c #82720F",
"#@	c #82710F",
"$@	c #8B7B11",
"%@	c #928112",
"&@	c #928212",
"*@	c #908312",
"=@	c #8B8C15",
"-@	c #93B338",
";@	c #8CB419",
">@	c #89B112",
",@	c #87AF12",
"'@	c #A4BC30",
")@	c #ABA03B",
"!@	c #7B6F0F",
"~@	c #837A10",
"{@	c #858311",
"]@	c #8B8E12",
"^@	c #8F9A13",
"/@	c #8E9F12",
"(@	c #8DA612",
"_@	c #8BAC12",
":@	c #8AB113",
"<@	c #95B83A",
"[@	c #ACB276",
"}@	c #86A017",
"|@	c #8AA912",
"1@	c #8BB212",
"2@	c #8BB315",
"3@	c #8EB425",
"4@	c #A9B01E",
"5@	c #9CB11D",
"6@	c #B0B342",
"7@	c #A8B026",
"8@	c #89B216",
"9@	c #91B838",
"0@	c #98BA4A",
"a@	c #8BB314",
"b@	c #89B213",
"c@	c #8DB816",
"d@	c #99B953",
"e@	c #BDC987",
"f@	c #8DB715",
"g@	c #89B113",
"h@	c #8DB421",
"i@	c #8DB420",
"j@	c #B2C679",
"          .             +             @ #   $ % &               ",
"                      * =         -           ; > ,             ",
"    ' )                           + -   )                       ",
"                #     !     ~ {     ]   ^           / (   @     ",
"    _ : < [ } = |     '     1 2 3 4 5 6 7 8             @ #     ",
"  9 0 a b c d   -     + e f g h i j k l m n ) #                 ",
"_ o p   q r s   )     t u v w x y z z A B C             *       ",
"                '     D E F z z G H I J K L M     N       #     ",
",     ] O P *       3 Q R S T U V W X K K Y Z     )   @ ) #   # ",
"      ) '   >     ) `  ...+.@.#.$.%.&.*.K B =.-.  , ;.  >       ",
"                + @ >.,.'.).).).).).!.~.K K {.].  ) + -   -     ",
"  (               ^./.(._.:.:.:.:.:.<.[.K K Y }.          . |.  ",
"  ) .           3 1.2.3.4.4.4.4.4.4.5.6.7.K K 8.9.              ",
"    0.  a.      b.c.d.e.f.f.f.f.f.f.g.h.i.j.k.l.-.              ",
"        m.e   3 n.o.p.q.r.r.s.s.s.r.t.u.v.w.w.x.3   N     ' )   ",
"      y.z.A.  B.C.D.E.F.F.F.F.F.F.F.G.H.I.z J.K.      # '       ",
"  - -   L.    M.N.O.P.Q.Q.Q.Q.Q.Q.R.S.T.U.V.W.X.  Y.{ Z.:       ",
"  = -   Z.    `. +.+++Q.Q.Q.Q.Q.Q.@+#+$+%+&+*+  $ =+-+_     ' , ",
"        '     ;+>+,+$.'+Q.Q.Q.Q.)+!+~+{+{+]+^+/+(+_+:+      _ ( ",
"  a.          <+[+}+|+1+Q.Q.Q.Q.2+3+{+{+4+5+! 6+7+8+9+          ",
"  0+a+    +   b+c+d+e+f+g+h+i+j+k+l+{+{+m+n+#   o+) -           ",
"s p+q+r+(     _ s+t+u+v+w+x+y+z+A+B+{+4+C+      -           (   ",
"9.D+E+_ ) #     F+G+H+I+J+K+L+M+N+O+{+P+Q+      ]   :     ' )   ",
"      ' a.    ) R+S+T+U+V+V+W+M+M+X+Y+Z+`+          #           ",
"              , t  @.@+@@@#@$@%@&@*@=@-@;@              >@,@    ",
"                ] '@)@!@~@{@]@^@/@(@_@    / ' >     ' *         ",
"        ,@>@    :@<@[@}@|@M n+1@'   >@,@                  )     ",
"9+                2@3@+       @ 4@5@  - '             !   #     ",
"- # @ ' #                       6@7@    8@            9@0@a@    ",
"      ,@b@      ' c@#     >@,@    1@+                 d@e@r+    ",
"f@g@              '             # (       (   _       a@h@      ",
"  ,@                            #     ' , > i@j@0   *           "};
