/* XPM */
static char * walls_xpm[] = {
"32 32 391 2",
"  	c #424545",
". 	c #464A4A",
"+ 	c #4D5353",
"@ 	c #494D4D",
"# 	c #434748",
"$ 	c #4C5353",
"% 	c #4D5151",
"& 	c #454848",
"* 	c #4C5050",
"= 	c #4B5050",
"- 	c #4B5152",
"; 	c #434647",
"> 	c #545857",
", 	c #444748",
"' 	c #454849",
") 	c #4D5454",
"! 	c #484B4C",
"~ 	c #45484A",
"{ 	c #4C5253",
"] 	c #4C5150",
"^ 	c #4C5252",
"/ 	c #4B5151",
"( 	c #434747",
"_ 	c #464A4B",
": 	c #525858",
"< 	c #3C3B3C",
"[ 	c #3F3F40",
"} 	c #414142",
"| 	c #404041",
"1 	c #3D3E3F",
"2 	c #3F4141",
"3 	c #404141",
"4 	c #404142",
"5 	c #3F4041",
"6 	c #3F3D3E",
"7 	c #404242",
"8 	c #3F4142",
"9 	c #424445",
"0 	c #3B3D3E",
"a 	c #3E3F40",
"b 	c #3E3E3F",
"c 	c #3E4041",
"d 	c #3F3E3F",
"e 	c #3F3F3F",
"f 	c #3E4142",
"g 	c #404042",
"h 	c #404143",
"i 	c #424446",
"j 	c #47494A",
"k 	c #3D3E40",
"l 	c #424546",
"m 	c #434446",
"n 	c #3E3F41",
"o 	c #414445",
"p 	c #45494A",
"q 	c #434547",
"r 	c #414243",
"s 	c #404243",
"t 	c #3F4242",
"u 	c #434648",
"v 	c #3F3F41",
"w 	c #424345",
"x 	c #3D3D3E",
"y 	c #434646",
"z 	c #454949",
"A 	c #3E4042",
"B 	c #3F4042",
"C 	c #404343",
"D 	c #474A4C",
"E 	c #414244",
"F 	c #444949",
"G 	c #414242",
"H 	c #474B4B",
"I 	c #3E3D3F",
"J 	c #464B4B",
"K 	c #444747",
"L 	c #444848",
"M 	c #424243",
"N 	c #444849",
"O 	c #424444",
"P 	c #393639",
"Q 	c #3D3B3D",
"R 	c #3B393B",
"S 	c #414344",
"T 	c #353035",
"U 	c #3D3C3E",
"V 	c #3A373A",
"W 	c #3B3C3E",
"X 	c #3B393A",
"Y 	c #3E3E3E",
"Z 	c #403F40",
"` 	c #3D3C3D",
" .	c #3B393C",
"..	c #353034",
"+.	c #403F41",
"@.	c #3E3E40",
"#.	c #3A383A",
"$.	c #3F3E40",
"%.	c #3C3C3D",
"&.	c #3F4243",
"*.	c #464949",
"=.	c #393539",
"-.	c #322D31",
";.	c #30282E",
">.	c #2F282D",
",.	c #363236",
"'.	c #332E31",
").	c #2F272D",
"!.	c #3C3C3E",
"~.	c #3D3D3F",
"{.	c #484D4E",
"].	c #343235",
"^.	c #2A2329",
"/.	c #231C23",
"(.	c #4B4E4E",
"_.	c #4C4C4C",
":.	c #464547",
"<.	c #31292E",
"[.	c #30282F",
"}.	c #2A2429",
"|.	c #332D31",
"1.	c #373436",
"2.	c #2E252A",
"3.	c #373539",
"4.	c #312B30",
"5.	c #31292F",
"6.	c #30292F",
"7.	c #322C32",
"8.	c #353236",
"9.	c #4B4F4F",
"0.	c #535959",
"a.	c #4E5252",
"b.	c #46484A",
"c.	c #414343",
"d.	c #342F32",
"e.	c #2E242B",
"f.	c #291C24",
"g.	c #333033",
"h.	c #494A4A",
"i.	c #555857",
"j.	c #5B5C5A",
"k.	c #322A2F",
"l.	c #343033",
"m.	c #3C3B3D",
"n.	c #363235",
"o.	c #383538",
"p.	c #353135",
"q.	c #2F252C",
"r.	c #2D2229",
"s.	c #2E2329",
"t.	c #30272C",
"u.	c #2F262C",
"v.	c #2F292E",
"w.	c #393739",
"x.	c #373538",
"y.	c #2C2127",
"z.	c #2C232A",
"A.	c #3A3739",
"B.	c #30282D",
"C.	c #2D2329",
"D.	c #342F33",
"E.	c #565959",
"F.	c #4B4C4C",
"G.	c #494D4E",
"H.	c #424647",
"I.	c #4A4D4D",
"J.	c #4E5353",
"K.	c #424646",
"L.	c #505554",
"M.	c #3B3A3C",
"N.	c #322F31",
"O.	c #342E31",
"P.	c #4B5051",
"Q.	c #494C4D",
"R.	c #444749",
"S.	c #494C4C",
"T.	c #4D5051",
"U.	c #494E4F",
"V.	c #312C2F",
"W.	c #4C5152",
"X.	c #474B4C",
"Y.	c #3F4143",
"Z.	c #414143",
"`.	c #404344",
" +	c #38383A",
".+	c #373336",
"++	c #3C3E40",
"@+	c #332D32",
"#+	c #3B3B3D",
"$+	c #3C3A3C",
"%+	c #3C3D3F",
"&+	c #3D3D40",
"*+	c #322E32",
"=+	c #2E2A2E",
"-+	c #2B242A",
";+	c #434546",
">+	c #383537",
",+	c #373537",
"'+	c #342E33",
")+	c #404043",
"!+	c #434345",
"~+	c #444647",
"{+	c #414444",
"]+	c #484A4B",
"^+	c #424344",
"/+	c #474A4B",
"(+	c #2D232A",
"_+	c #2B1F26",
":+	c #22151E",
"<+	c #383437",
"[+	c #39393B",
"}+	c #4A4F50",
"|+	c #404040",
"1+	c #3E3C3E",
"2+	c #312A30",
"3+	c #2E232A",
"4+	c #271B22",
"5+	c #3A393A",
"6+	c #464849",
"7+	c #595D5C",
"8+	c #363135",
"9+	c #454748",
"0+	c #46494A",
"a+	c #404445",
"b+	c #494E4E",
"c+	c #404545",
"d+	c #322C30",
"e+	c #312C31",
"f+	c #291E25",
"g+	c #3A383B",
"h+	c #353337",
"i+	c #190A17",
"j+	c #1E171F",
"k+	c #2E2A2D",
"l+	c #363538",
"m+	c #484949",
"n+	c #4A4F4F",
"o+	c #4A5050",
"p+	c #4D5252",
"q+	c #414545",
"r+	c #474849",
"s+	c #322B31",
"t+	c #23161F",
"u+	c #312E31",
"v+	c #130212",
"w+	c #120111",
"x+	c #292228",
"y+	c #383436",
"z+	c #3E3D3E",
"A+	c #3C3A3D",
"B+	c #3C3B3E",
"C+	c #373337",
"D+	c #3B383B",
"E+	c #3B3B3E",
"F+	c #231720",
"G+	c #2E252B",
"H+	c #332E32",
"I+	c #1F111B",
"J+	c #1E131C",
"K+	c #2C2128",
"L+	c #353134",
"M+	c #363136",
"N+	c #353235",
"O+	c #342E34",
"P+	c #474C4C",
"Q+	c #4F5454",
"R+	c #4F5453",
"S+	c #373237",
"T+	c #353336",
"U+	c #251921",
"V+	c #3B3A3D",
"W+	c #4C5052",
"X+	c #322B30",
"Y+	c #505555",
"Z+	c #494B4B",
"`+	c #2F272C",
" @	c #22161F",
".@	c #3A3A3D",
"+@	c #565B5A",
"@@	c #383739",
"#@	c #414546",
"$@	c #2F262D",
"%@	c #3D3D3D",
"&@	c #474C4D",
"*@	c #291E26",
"=@	c #2E2C30",
"-@	c #3E4040",
";@	c #383336",
">@	c #3E3E41",
",@	c #343034",
"'@	c #261A22",
")@	c #2B2329",
"!@	c #322F32",
"~@	c #3A393B",
"{@	c #1F161F",
"]@	c #37373A",
"^@	c #47494B",
"/@	c #353033",
"(@	c #312A2F",
"_@	c #312C30",
":@	c #4A4D4C",
"<@	c #545B5A",
"[@	c #666966",
"}@	c #515251",
"|@	c #39383B",
"1@	c #2C2229",
"2@	c #2B252A",
"3@	c #484C4D",
"4@	c #474A4A",
"5@	c #241B23",
"6@	c #373639",
"7@	c #39373A",
"8@	c #2F292F",
"9@	c #2B2027",
"0@	c #2A2026",
"a@	c #3A393C",
"b@	c #3A3639",
"c@	c #2E262C",
"d@	c #342D32",
"e@	c #404244",
"f@	c #4B4F50",
"g@	c #302B30",
"h@	c #251E24",
"i@	c #414041",
"j@	c #383539",
"k@	c #3B3D3F",
"l@	c #30272D",
"m@	c #383337",
"n@	c #434445",
"o@	c #555958",
"p@	c #484C4C",
"q@	c #525757",
"r@	c #555C5C",
"s@	c #30262C",
"t@	c #363336",
"u@	c #363437",
"v@	c #424343",
"w@	c #575957",
"x@	c #2A2228",
"y@	c #4A4E4E",
"z@	c #241B22",
"A@	c #1E121C",
"B@	c #505353",
"C@	c #474D4D",
"D@	c #505657",
"E@	c #4F5353",
"F@	c #5A5F5E",
"G@	c #616361",
"H@	c #3F4244",
"I@	c #322C31",
"J@	c #2F292D",
"K@	c #2C2027",
"L@	c #261922",
"M@	c #404444",
"N@	c #535553",
"O@	c #39383A",
"P@	c #281E25",
"Q@	c #383438",
"R@	c #342F34",
"S@	c #333234",
"T@	c #3C3C3F",
"U@	c #251A22",
"V@	c #2E292E",
"W@	c #484A4A",
"X@	c #373437",
"Y@	c #3F3E41",
"Z@	c #4F5352",
"`@	c #5B605F",
" #	c #676966",
".#	c #515453",
"+#	c #525756",
"@#	c #393638",
"##	c #414345",
"$#	c #575C5B",
"%#	c #414144",
"&#	c #4A4C4B",
"*#	c #4A4E4F",
"=#	c #444547",
"-#	c #403D3F",
";#	c #444648",
">#	c #484B4B",
",#	c #4A4B4C",
"'#	c #474949",
")#	c #383637",
"!#	c #424244",
"~#	c #373236",
"{#	c #393538",
"]#	c #373235",
"^#	c #3B383A",
"/#	c #38373A",
"(#	c #352F33",
"  . + @ # $ % & * = # % - ; . > , ' ) ! ~ { % , ] ^ ' % / ( _ : ",
"< [ } [ [ | 1 2 3 4 5 6 7 8 | 9 0 a 4 5 b | c | 8 4 d e f 3 4   ",
"g h 5 i j k l m n o p 4 8 q r s 5 t 8 9 u v l w x y z A 8 9 B C ",
", D E F # G , H I ( J o K ( l   L J G F p M , H 1 N . 9 ; & O y ",
"d k P B c Q R S T U g a V c W X [ Y V B Z `  .S ..U +.@.#.$.%.P ",
"&.N *.=.-.;.>.,.'.).!.9 ~.E 9 {.&.K ! ].^./.n (._.:.<.[.}.|.1.2.",
"x | O 3.4.,.5.6.7.8.9.0.a.7 } b.b c.O d.e.f.g.h.i.j.k...l.m.F K ",
"n.o.U p.q.r.s.t.u.v.2 4   w.#.B P x.!.].;.y.z.,.A.[ B.C.C.D.E.F.",
"G.% H.I.J.K.G.L.8 M.N.O.v P.Q.R.S.T.L U./ ; A V.|.5 W.X.Y.@.Z.Q ",
"+.5 m.( 4 Z 1 `. +%..+n.n.Z ++U G h b b 4 Z b ; Q Z | b @+#+~.$+",
"%+8 h 8 `.9 i s &+h Z.h @.*+=+-+%+h ;+>+,+'+1.l )+!+4 g v ~.s ; ",
"a l N ~+{+L ]+^+& _ r ;+/+(+_+:+f l L E ; U <+r , ! s i G.[+  }+",
"R m.|+!.$+d ~.1+b ~.< !.@.2+3+4+5+#.5 6+7+/+8+Q b a %.~.8 ,.x.9 ",
"9+0+a+/+b+s c+I.d+e+(+f+d+g+h+i+j+k+`.l+m+A.r n+&.N o+l l _ I.p+",
"s 9 b ~+q+~+;+; r+r s+t+;.m.u+v+w+x+1+< y+z+[ ' Q ;+; 4 r ^+; J ",
"A+B+C+D+1 Y.E+h ~.[ ).F+G+V H+I+J+K+L+#.` M+N+~.O+.+m.x C+$+n s ",
"o P+Q+q ^ R+l 9+S+T+U+V+W+u.d+X+C X.Y+H N P.Z+N+`+ @.@(.+ , I.+@",
"< ~.X.z N { X.9 3 @@_+o.#@$@G+|.< %@&@' b 3 n L.V *@=@e 4 -@O l ",
"g 8 s #+k Z 9 q Z.U ;@z+@.>@,@'@)@!@&.4 !+k g+4 ~@h {@]@C 9 Y.q+",
"K ^@g /@(@_@8 X.:@<@[@}@;+L |@1@f.2@5 n 3@G 5 !.s 4@5@6@; 0+o K.",
"[ ~.7@#.g+C+#.9 P M.M Z+g+Z w.8@9@0@8+|.h z+a@S 7@U x.,+#.[ %.b@",
"f l z 6@2+u.o.q+4.c@d@0+Q.e@q /+(+9@G+#+; f@I C+3.g@b.! h@@@9 v ",
"` i@;+6@s+,.j@| S k@z+Z.~+| i@' l@@+m@P ; n@v c.H 8.;+o@*+p@q@r@",
"n.o.!./@s@f+l@t@A+$+R V %+P #.[ ).G+).'+o.!.u@v@w@<+& /+x@` 7 p ",
"G.P.~+9.y@z@U+A@`./+B@0+C@C@] ' {.D@E@F@G@y E+;.m.D.[ t@H@I@@+V ",
"} a $+;+c J@K@L@,.^+M@c b c I 1+| 4 Z r N@i@!.O@P@).,.j@v 8+Q@R@",
"~.8 h B S n !.].~.h &.w 4 S@..4.@.T@(@4.[ 9 ~@.+U@V@#.V $+a h i ",
"8 9 p ~+^+L W@^+& 0+O ' K `.^+<+I r A+X@$.& n@d ^+Y@Z@`@ #n@9 o+",
"@@!.| x $+d U I [ a U U | .#+#z+g+!.[ x ` [ @###$#%#$+Q &#U U ^+",
"' . s /+*#&.p I.Y.' *#=#`.-#Z P ;#>#a+{.G.&.E ~@,#t@).>.B+_ '#; ",
"M ;+I ~+;+| S ,  .;+; 8 5 )#R z+G ; I ; 9 G !#S ~#} 7 < | S B 5 ",
"g+#+p.j@~.{#8.@.2+]#$+^#d.R @#2+V < L+7@z+o.~#v 6.]#m. +.+ ./#(#"};
