/* XPM */
static char * zel_w_xpm[] = {
"32 32 686 2",
"  	c #8BB312",
". 	c #88B012",
"+ 	c #88AF13",
"@ 	c #8AB215",
"# 	c #88AD1C",
"$ 	c #83A422",
"% 	c #8AA438",
"& 	c #B7BA87",
"* 	c #879943",
"= 	c #7B9D17",
"- 	c #89B012",
"; 	c #8DB716",
"> 	c #8AB213",
", 	c #8AB212",
"' 	c #85AC12",
") 	c #859E33",
"! 	c #ACB65D",
"~ 	c #BCC368",
"{ 	c #B4B864",
"] 	c #9D9B57",
"^ 	c #8B854C",
"/ 	c #797A3D",
"( 	c #758A27",
"_ 	c #82A616",
": 	c #8BB413",
"< 	c #8CB615",
"[ 	c #84A61E",
"} 	c #97A44D",
"| 	c #CCD573",
"1 	c #C4CA6F",
"2 	c #9F9D58",
"3 	c #8D894F",
"4 	c #8A884C",
"5 	c #857E49",
"6 	c #867F49",
"7 	c #7E883A",
"8 	c #86A91F",
"9 	c #8CB514",
"0 	c #8BB415",
"a 	c #89B015",
"b 	c #8AAF1C",
"c 	c #89AD23",
"d 	c #86A825",
"e 	c #85A428",
"f 	c #8AA72E",
"g 	c #839B33",
"h 	c #8F984D",
"i 	c #C1C96C",
"j 	c #C2C86D",
"k 	c #B0B263",
"l 	c #AFB369",
"m 	c #ACB169",
"n 	c #939254",
"o 	c #89824D",
"p 	c #8B9347",
"q 	c #8BAC29",
"r 	c #8CB413",
"s 	c #8BB313",
"t 	c #8DB615",
"u 	c #97BA49",
"v 	c #94B83F",
"w 	c #8DB717",
"x 	c #8AB315",
"y 	c #8AB113",
"z 	c #86A91E",
"A 	c #8BA439",
"B 	c #9EAC52",
"C 	c #B3BC62",
"D 	c #C0C96B",
"E 	c #C7D070",
"F 	c #CAD371",
"G 	c #C8D170",
"H 	c #C3C96E",
"I 	c #BDC36B",
"J 	c #BDC46B",
"K 	c #B4BB66",
"L 	c #ABB070",
"M 	c #9DA185",
"N 	c #8C9087",
"O 	c #898E7E",
"P 	c #829262",
"Q 	c #87AB30",
"R 	c #9DBB4F",
"S 	c #90B62F",
"T 	c #8CB316",
"U 	c #BECD92",
"V 	c #D0D1A0",
"W 	c #8EB525",
"X 	c #8BB212",
"Y 	c #87AC18",
"Z 	c #8EA63A",
"` 	c #AAB65C",
" .	c #C0C96C",
"..	c #CAD372",
"+.	c #CDD474",
"@.	c #CAD073",
"#.	c #C0C56F",
"$.	c #B7B86B",
"%.	c #B2AC6A",
"&.	c #AC9D67",
"*.	c #A48863",
"=.	c #9F8760",
"-.	c #A9A85F",
";.	c #B3B665",
">.	c #9A9856",
",.	c #868163",
"'.	c #ACAEAB",
").	c #AEB6B8",
"!.	c #909E9A",
"~.	c #85A555",
"{.	c #A1BD58",
"].	c #92B73A",
"^.	c #9DBD59",
"/.	c #A6C26C",
"(.	c #8CB319",
"_.	c #85AB14",
":.	c #96A947",
"<.	c #A6AB61",
"[.	c #9C9E66",
"}.	c #958F63",
"|.	c #B0A175",
"1.	c #BDA883",
"2.	c #BEA388",
"3.	c #C4A68F",
"4.	c #CAA994",
"5.	c #C6A693",
"6.	c #AE907D",
"7.	c #967963",
"8.	c #8E705A",
"9.	c #876E51",
"0.	c #877B4C",
"a.	c #8B824C",
"b.	c #877F4D",
"c.	c #928F7C",
"d.	c #A9AEAC",
"e.	c #9BA7A5",
"f.	c #7E9C5A",
"g.	c #85AD13",
"h.	c #7FA021",
"i.	c #9E9869",
"j.	c #AFA08F",
"k.	c #928B86",
"l.	c #645C5B",
"m.	c #9D8275",
"n.	c #C9A896",
"o.	c #D0AF9C",
"p.	c #C8AA98",
"q.	c #A8928A",
"r.	c #76696A",
"s.	c #4B414B",
"t.	c #6F585A",
"u.	c #9C756B",
"v.	c #9B7660",
"w.	c #89774F",
"x.	c #88804C",
"y.	c #877F50",
"z.	c #9C9D94",
"A.	c #9BA5A5",
"B.	c #748B5F",
"C.	c #83AA15",
"D.	c #8BB514",
"E.	c #88B013",
"F.	c #87AF14",
"G.	c #8AB312",
"H.	c #8DB617",
"I.	c #889E3F",
"J.	c #B29D83",
"K.	c #DAC5B8",
"L.	c #B8AEA6",
"M.	c #635D58",
"N.	c #927C6F",
"O.	c #C7A896",
"P.	c #CFAF9C",
"Q.	c #D0B8A9",
"R.	c #D1C6BD",
"S.	c #9D9690",
"T.	c #322F2D",
"U.	c #5A4B4A",
"V.	c #9F7E77",
"W.	c #AC7E6D",
"X.	c #987D5C",
"Y.	c #867951",
"Z.	c #927962",
"`.	c #A49D99",
" +	c #9EA8A9",
".+	c #798D6D",
"++	c #83A924",
"@+	c #8BB517",
"#+	c #859741",
"$+	c #B09781",
"%+	c #CEAE9C",
"&+	c #BBA193",
"*+	c #9A8376",
"=+	c #AC8E7E",
"-+	c #CAA896",
";+	c #D0AE9B",
">+	c #D3B4A2",
",+	c #D7C1B4",
"'+	c #B8A99E",
")+	c #736057",
"!+	c #816055",
"~+	c #AA7F71",
"{+	c #A78068",
"]+	c #968858",
"^+	c #907D55",
"/+	c #8E6A5C",
"(+	c #ABA4A2",
"_+	c #A8B1B2",
":+	c #7D8E7B",
"<+	c #83A631",
"[+	c #81A51D",
"}+	c #78885A",
"|+	c #A69386",
"1+	c #CAAA97",
"2+	c #CFAE9B",
"3+	c #CEAD9A",
"4+	c #C8A794",
"5+	c #CAA997",
"6+	c #CEAC99",
"7+	c #CDAC99",
"8+	c #CAA996",
"9+	c #CAA795",
"0+	c #BA917F",
"a+	c #B1816F",
"b+	c #AD7E6D",
"c+	c #A79165",
"d+	c #939152",
"e+	c #77733F",
"f+	c #6D7241",
"g+	c #ABB1AB",
"h+	c #B0B8BA",
"i+	c #828F89",
"j+	c #80A141",
"k+	c #8BB412",
"l+	c #8BB314",
"m+	c #86A34E",
"n+	c #8B9270",
"o+	c #87835F",
"p+	c #A08875",
"q+	c #C6A795",
"r+	c #CCAA98",
"s+	c #BF9A8F",
"t+	c #C19591",
"u+	c #C5A193",
"v+	c #C8A694",
"w+	c #C6A28F",
"x+	c #BB907E",
"y+	c #B38372",
"z+	c #B1806F",
"A+	c #A78767",
"B+	c #9F9A5B",
"C+	c #929051",
"D+	c #788037",
"E+	c #798A56",
"F+	c #B1B8B1",
"G+	c #ACB6B7",
"H+	c #8B9A96",
"I+	c #7D9B4E",
"J+	c #87AD13",
"K+	c #7E9B45",
"L+	c #848172",
"M+	c #897B67",
"N+	c #7B614E",
"O+	c #93756A",
"P+	c #B19282",
"Q+	c #C19E8C",
"R+	c #C29D8C",
"S+	c #C1998A",
"T+	c #BE9584",
"U+	c #B78B7A",
"V+	c #B38473",
"W+	c #B18170",
"X+	c #B07F6E",
"Y+	c #A27964",
"Z+	c #837948",
"`+	c #859043",
" @	c #899444",
".@	c #7E9333",
"+@	c #8F976F",
"@@	c #A7A9A7",
"#@	c #8A9991",
"$@	c #85A64C",
"%@	c #8CB715",
"&@	c #7DA017",
"*@	c #8B885B",
"=@	c #B2917F",
"-@	c #A87C72",
";@	c #B47281",
">@	c #A76E78",
",@	c #8C6460",
"'@	c #8E5F62",
")@	c #905F61",
"!@	c #936261",
"~@	c #8F645B",
"{@	c #9D7162",
"]@	c #A37566",
"^@	c #956960",
"/@	c #957161",
"(@	c #9B8064",
"_@	c #96815F",
":@	c #8B7956",
"<@	c #907363",
"[@	c #A98475",
"}@	c #AA8678",
"|@	c #90816F",
"1@	c #7F954A",
"2@	c #87AD1D",
"3@	c #94B218",
"4@	c #8CB313",
"5@	c #89B112",
"6@	c #7C982B",
"7@	c #9F8E6F",
"8@	c #B48784",
"9@	c #D5889D",
"0@	c #E18EA6",
"a@	c #C27B8E",
"b@	c #935B66",
"c@	c #934B5C",
"d@	c #A35367",
"e@	c #90464F",
"f@	c #975A58",
"g@	c #A75F61",
"h@	c #965E5B",
"i@	c #A06E69",
"j@	c #A76E73",
"k@	c #B56E84",
"l@	c #B26782",
"m@	c #A26572",
"n@	c #A4796C",
"o@	c #9B8261",
"p@	c #859839",
"q@	c #88AE16",
"r@	c #8EB314",
"s@	c #D1AD45",
"t@	c #97B41E",
"u@	c #89B114",
"v@	c #859C3B",
"w@	c #A08E72",
"x@	c #BB8B8A",
"y@	c #BD7D88",
"z@	c #AB7972",
"A@	c #AA8676",
"B@	c #9F6762",
"C@	c #A4515B",
"D@	c #934C4E",
"E@	c #945E56",
"F@	c #9D645A",
"G@	c #9B695C",
"H@	c #A27069",
"I@	c #AA6A79",
"J@	c #B06781",
"K@	c #AB657D",
"L@	c #9C6D6D",
"M@	c #87864D",
"N@	c #86A42B",
"O@	c #8BB315",
"P@	c #90B518",
"Q@	c #87AF17",
"R@	c #869744",
"S@	c #A2896E",
"T@	c #A67B5A",
"U@	c #AB7D40",
"V@	c #B28548",
"W@	c #B08445",
"X@	c #AD7F44",
"Y@	c #B18346",
"Z@	c #B18147",
"`@	c #B18148",
" #	c #C49049",
".#	c #B2814B",
"+#	c #95685F",
"@#	c #996B65",
"##	c #95795F",
"$#	c #869241",
"%#	c #88AE1F",
"&#	c #8CB51D",
"*#	c #8CB614",
"=#	c #88AE15",
"-#	c #788A2B",
";#	c #91544B",
">#	c #AB5B52",
",#	c #BD7E4A",
"'#	c #BF8845",
")#	c #B27E41",
"!#	c #A87240",
"~#	c #9A6340",
"{#	c #884F41",
"]#	c #8A5042",
"^#	c #835955",
"/#	c #8B7572",
"(#	c #8F8364",
"_#	c #869C32",
":#	c #8CB225",
"<#	c #9CBD55",
"[#	c #B0C572",
"}#	c #769019",
"|#	c #9D5752",
"1#	c #B24362",
"2#	c #B24661",
"3#	c #B1485F",
"4#	c #AE445E",
"5#	c #A53E5C",
"6#	c #8D3351",
"7#	c #7B2C4A",
"8#	c #792B4A",
"9#	c #782D4A",
"0#	c #72464D",
"a#	c #75823F",
"b#	c #8DB136",
"c#	c #D0D19F",
"d#	c #9FBE5D",
"e#	c #8EB424",
"f#	c #728D1A",
"g#	c #9B5251",
"h#	c #B24262",
"i#	c #AE4060",
"j#	c #953655",
"k#	c #7E2D4C",
"l#	c #772B49",
"m#	c #6F583A",
"n#	c #799A18",
"o#	c #8EB429",
"p#	c #C5D29D",
"q#	c #91B537",
"r#	c #87AE13",
"s#	c #90B62E",
"t#	c #97BA4A",
"u#	c #7B9A18",
"v#	c #975E4D",
"w#	c #B04161",
"x#	c #B34262",
"y#	c #B24161",
"z#	c #AC3F5F",
"A#	c #943654",
"B#	c #7B2C4B",
"C#	c #712A44",
"D#	c #6E6D2F",
"E#	c #85AC15",
"F#	c #8DB61B",
"G#	c #C5CF97",
"H#	c #C2CC90",
"I#	c #8CB41A",
"J#	c #83A716",
"K#	c #896D3F",
"L#	c #A7415B",
"M#	c #B04760",
"N#	c #AB485B",
"O#	c #A74759",
"P#	c #A34158",
"Q#	c #8C3451",
"R#	c #792B49",
"S#	c #804146",
"T#	c #95623E",
"U#	c #8C752D",
"V#	c #869E19",
"W#	c #8CB414",
"X#	c #98BC47",
"Y#	c #98BA4B",
"Z#	c #8BB213",
"`#	c #8AB11C",
" $	c #8CB123",
".$	c #82A021",
"+$	c #A68B3D",
"@$	c #B37D54",
"#$	c #B78352",
"$$	c #C08948",
"%$	c #C28A42",
"&$	c #B47D3F",
"*$	c #915D3E",
"=$	c #956241",
"-$	c #9B6B3E",
";$	c #A17539",
">$	c #8B6D2E",
",$	c #7F911F",
"'$	c #8CB519",
")$	c #8AAF23",
"!$	c #86A437",
"~$	c #8E995A",
"{$	c #A5967E",
"]$	c #B39890",
"^$	c #B0908E",
"/$	c #B4897D",
"($	c #B5886A",
"_$	c #B98C5B",
":$	c #C29154",
"<$	c #AD7F3E",
"[$	c #AD7B3B",
"}$	c #966A36",
"|$	c #916633",
"1$	c #8F6436",
"2$	c #865C4D",
"3$	c #8E646A",
"4$	c #87815C",
"5$	c #83A425",
"6$	c #8DAD35",
"7$	c #9A9B6A",
"8$	c #A48E87",
"9$	c #A1858F",
"0$	c #A18290",
"a$	c #A58091",
"b$	c #AE8398",
"c$	c #B7889F",
"d$	c #BB8AA2",
"e$	c #C290A8",
"f$	c #C28FA5",
"g$	c #B48693",
"h$	c #A07777",
"i$	c #8A6258",
"j$	c #855860",
"k$	c #8C5A69",
"l$	c #8F5D6E",
"m$	c #925E79",
"n$	c #9A6284",
"o$	c #986882",
"p$	c #8C8E5D",
"q$	c #87AF12",
"r$	c #88AE17",
"s$	c #999C67",
"t$	c #BB95A2",
"u$	c #B29EA1",
"v$	c #B0A1A1",
"w$	c #918484",
"x$	c #ADA09F",
"y$	c #B7A8A8",
"z$	c #988088",
"A$	c #936B80",
"B$	c #906483",
"C$	c #A27291",
"D$	c #BA87A4",
"E$	c #C995AF",
"F$	c #C18DA7",
"G$	c #9E6988",
"H$	c #9A6184",
"I$	c #9B6285",
"J$	c #9B6185",
"K$	c #A16A8B",
"L$	c #93866D",
"M$	c #81A617",
"N$	c #89AA2D",
"O$	c #968B71",
"P$	c #A77A88",
"Q$	c #845654",
"R$	c #7F5856",
"S$	c #715757",
"T$	c #8D7978",
"U$	c #967B79",
"V$	c #825957",
"W$	c #71494B",
"X$	c #6D4558",
"Y$	c #885677",
"Z$	c #8A597D",
"`$	c #946485",
" %	c #AA7494",
".%	c #9E6589",
"+%	c #9A6185",
"@%	c #9D6887",
"#%	c #90836B",
"$%	c #81A125",
"%%	c #8AAF1F",
"&%	c #89B019",
"*%	c #8AB114",
"=%	c #8CB616",
"-%	c #89A831",
";%	c #928373",
">%	c #A07385",
",%	c #864C49",
"'%	c #824642",
")%	c #6F3838",
"!%	c #723E3B",
"~%	c #844A44",
"{%	c #884B45",
"]%	c #7D423F",
"^%	c #643238",
"/%	c #744460",
"(%	c #865477",
"_%	c #88567B",
":%	c #85547A",
"<%	c #8D597D",
"[%	c #985F82",
"}%	c #955E80",
"|%	c #8E597A",
"1%	c #8F5A7A",
"2%	c #8F5F7C",
"3%	c #8D6078",
"4%	c #8B6474",
"5%	c #8A6E6D",
"6%	c #897967",
"7%	c #87815E",
"8%	c #868A55",
"9%	c #88994E",
"0%	c #89A141",
"a%	c #88A92B",
"b%	c #85AB19",
"c%	c #83A42C",
"d%	c #819544",
"e%	c #837574",
"f%	c #896283",
"g%	c #814D55",
"h%	c #834743",
"i%	c #6E3837",
"j%	c #5F303C",
"k%	c #754043",
"l%	c #874B45",
"m%	c #854944",
"n%	c #6E383B",
"o%	c #72435A",
"p%	c #7E526A",
"q%	c #8D5B7A",
"r%	c #805275",
"s%	c #835377",
"t%	c #825376",
"u%	c #7E5074",
"v%	c #805274",
"w%	c #784E6F",
"x%	c #774E6F",
"y%	c #784E71",
"z%	c #7D5273",
"A%	c #7C5472",
"B%	c #7D5770",
"C%	c #7E5A70",
"D%	c #7B5D6D",
"E%	c #806C6C",
"F%	c #9D9079",
"G%	c #949D5C",
"H%	c #7F9A32",
"I%	c #87855E",
"J%	c #7F7268",
"K%	c #7D646F",
"L%	c #7D5E6F",
"M%	c #774F54",
"N%	c #7E4440",
"O%	c #6D3C37",
"P%	c #695C3F",
"Q%	c #6B6939",
"R%	c #78523A",
"S%	c #864B44",
"T%	c #78473B",
"U%	c #6D7828",
"V%	c #769324",
"W%	c #819142",
"X%	c #848853",
"Y%	c #838158",
"Z%	c #7A7854",
"`%	c #74784F",
" &	c #7D7E53",
".&	c #7E8450",
"+&	c #7D884B",
"@&	c #808D48",
"#&	c #7E913E",
"$&	c #7E9832",
"%&	c #7E9D26",
"&&	c #8DA84E",
"*&	c #B3BF82",
"=&	c #8BAF26",
"-&	c #8BB11E",
";&	c #8BB216",
">&	c #88AF17",
",&	c #89AF1C",
"'&	c #89AE1F",
")&	c #86AA1E",
"!&	c #778726",
"~&	c #6F4236",
"{&	c #6E5930",
"]&	c #79951B",
"^&	c #86AC14",
"/&	c #788A22",
"(&	c #7E5B3B",
"_&	c #7D493E",
":&	c #707128",
"<&	c #84A814",
"[&	c #8AB214",
"}&	c #89B013",
"|&	c #89B113",
"1&	c #8DB421",
"2&	c #77921A",
"3&	c #768821",
"4&	c #7F9D19",
"5&	c #88AF12",
"6&	c #8AB013",
"7&	c #80991F",
"8&	c #74702C",
"9&	c #717826",
"0&	c #86A916",
"a&	c #8CB716",
"b&	c #8DB420",
"c&	c #B2C679",
"          .             +             @ # $ % & * = -           ",
"                      ; >         , ' ) ! ~ { ] ^ / ( _ ,       ",
"    : <                           + [ } | 1 2 3 4 5 6 7 8       ",
"                9     0 a b c d e f g h i j k l m n o p q r     ",
"    s t u v w > x y z A B C D E F F G H I J K L M N O P Q 9     ",
"  R S T U V W X Y Z `  ...+.@.#.$.%.&.*.=.-.;.>.,.'.).!.~.y     ",
"s {.].  ^./.(._.:.<.[.}.|.1.2.3.4.5.6.7.8.9.0.a.b.c.d.e.f.g.    ",
"              h.i.j.k.l.m.n.o.o.p.q.r.s.t.u.v.w.x.y.z.A.B.C.    ",
"D.    E.F.G.H.I.J.K.L.M.N.O.o.P.Q.R.S.T.U.V.W.X.Y.Z.`. +.+++  9 ",
"      < :   @+#+$+%+&+*+=+-+;+o.>+,+'+)+!+~+{+]+^+/+(+_+:+<+    ",
"            [+}+|+1+2+3+4+5+6+7+8+3+9+0+a+b+c+d+e+f+g+h+i+j+y   ",
"  k+      l+m+n+o+p+q+o.r+s+t+u+v+w+x+y+z+A+B+C+D+E+F+G+H+I+J+  ",
"  < .     l+K+L+M+N+O+P+Q+R+S+T+U+V+W+X+Y+Z+`+ @.@+@@@ +#@$@>   ",
"    -   %@  &@*@=@-@;@>@,@'@)@!@~@{@]@^@/@(@_@:@<@[@}@|@1@2@    ",
"        3@4@5@6@7@8@9@0@a@b@c@d@e@f@g@h@i@j@k@l@m@n@o@p@q@s <   ",
"      r@s@t@  u@v@w@x@y@z@A@B@C@D@E@F@G@H@I@J@K@L@M@N@O@:       ",
"  , ,   P@    > Q@R@S@T@U@V@W@X@Y@Z@`@ #.#+#@###$#%#&#*#t       ",
"  > ,   *#      D.=#-#;#>#,#'#)#!#~#{#]#^#/#(#_#:#<#[#s     : D.",
"        :         , }#|#1#2#3#4#5#6#7#8#9#0#a#b#c#d#e#      s k+",
"  %@              > f#g#h#h#h#i#j#k#8#8#l#m#n#o#p#q#r#          ",
"  s#t#    +       , u#v#w#x#x#y#z#A#B#8#C#D#E#  F#< ,           ",
"(.G#H#I#k+      > G.J#K#L#M#N#O#P#Q#R#S#T#U#V#X ,           k+  ",
"W#X#Y#s < 9   Z#`# $.$+$@$#$$$%$&$*$=$-$;$>$,$y +   t     : <   ",
"      : '$)$!$~${$]$^$/$($_$:$<$[$}$|$1$2$3$4$5$    9           ",
"    s 6$7$8$9$0$a$b$c$d$e$f$g$h$i$j$k$l$m$n$o$p$q@      5@q$    ",
"    r$s$t$u$v$w$x$y$z$A$B$C$D$E$F$G$H$I$J$I$K$L$M$  : ;         ",
"    N$O$P$Q$R$S$T$U$V$W$X$Y$Z$`$ %.%J$+%+%H$@%#%$%%%&%*%> =%s   ",
"r#  -%;%>%,%'%)%!%~%{%]%^%/%(%_%:%<%[%}%|%1%2%3%4%5%6%7%8%9%0%a%",
"b%c%d%e%f%g%h%i%j%k%l%m%n%o%p%q%r%s%t%u%v%w%x%y%z%A%B%C%D%E%F%G%",
"H%I%J%K%L%M%N%O%P%Q%R%S%T%U%V%W%X%Y%Z%`% &.&+&@&#&$&%&&&*&=&-&;&",
"=%>&,&'&)&!&~&{&]&^&/&(&_&:&<&s 0 [&}&}&|&> Z#l+s     l+1&      ",
"  q$    ' 2&3&4&5&  6&7&8&9&0&  9     : D.a&b&c&S   ;           "};
