/* XPM */
static char * zel_rdy_xpm[] = {
"32 32 486 2",
"  	c #8BB312",
". 	c #88B012",
"+ 	c #88AF13",
"@ 	c #8CB413",
"# 	c #8CB514",
"$ 	c #8DB423",
"% 	c #BECC8F",
"& 	c #93B739",
"* 	c #8DB716",
"= 	c #8AB213",
"- 	c #8BB313",
"; 	c #8BB315",
"> 	c #8BB218",
", 	c #8AB119",
"' 	c #8AB116",
") 	c #8BB212",
"! 	c #89AF19",
"~ 	c #8AB214",
"{ 	c #8BB317",
"] 	c #8CB716",
"^ 	c #8BB514",
"/ 	c #8BB413",
"( 	c #8CB615",
"_ 	c #8BB123",
": 	c #8AAC2D",
"< 	c #92AF37",
"[ 	c #A4B759",
"} 	c #B5C16C",
"| 	c #B3BB6E",
"1 	c #9B9D4D",
"2 	c #8A9628",
"3 	c #8DA55A",
"4 	c #88AB3F",
"5 	c #89B017",
"6 	c #95AF61",
"7 	c #969B5D",
"8 	c #A69B5D",
"9 	c #BEA477",
"0 	c #B69D6D",
"a 	c #AA9256",
"b 	c #9B7C4A",
"c 	c #908658",
"d 	c #9DA083",
"e 	c #8DA26F",
"f 	c #88A54E",
"g 	c #8BB215",
"h 	c #8CB816",
"i 	c #8BB412",
"j 	c #8DB615",
"k 	c #97BA49",
"l 	c #94B83F",
"m 	c #8DB717",
"n 	c #8AB315",
"o 	c #87AB2C",
"p 	c #9AA384",
"q 	c #B5B47C",
"r 	c #A99A5F",
"s 	c #C16872",
"t 	c #AB4B60",
"u 	c #8E784E",
"v 	c #A78F78",
"w 	c #B19884",
"x 	c #9F9D87",
"y 	c #8A9385",
"z 	c #8A9D6D",
"A 	c #8AB117",
"B 	c #9DBB4F",
"C 	c #90B62F",
"D 	c #8CB316",
"E 	c #BECD92",
"F 	c #D0D1A0",
"G 	c #8EB525",
"H 	c #8AB212",
"I 	c #89AB36",
"J 	c #B1B2A4",
"K 	c #C4CA83",
"L 	c #C9CD81",
"M 	c #BE9C62",
"N 	c #A27059",
"O 	c #C2AE9F",
"P 	c #C4AEA4",
"Q 	c #C09E93",
"R 	c #9B9072",
"S 	c #88877E",
"T 	c #979676",
"U 	c #89B024",
"V 	c #A1BD58",
"W 	c #92B73A",
"X 	c #9DBD59",
"Y 	c #A6C26C",
"Z 	c #8CB319",
"` 	c #89AE25",
" .	c #A0A58A",
"..	c #C6CC85",
"+.	c #A9AA78",
"@.	c #B8A790",
"#.	c #D7C2B4",
"$.	c #D0C2B9",
"%.	c #78777A",
"&.	c #A08D88",
"*.	c #A6907A",
"=.	c #91836D",
"-.	c #9D9C6D",
";.	c #8AB118",
">.	c #86A928",
",.	c #969373",
"'.	c #ABA78C",
").	c #918D8A",
"!.	c #C7B7AC",
"~.	c #E4D1C2",
"{.	c #CCC3BC",
"].	c #817E7C",
"^.	c #9B8A85",
"/.	c #B29E86",
"(.	c #958C69",
"_.	c #8A9A4F",
":.	c #87AE13",
"<.	c #86AD12",
"[.	c #88B013",
"}.	c #87AF14",
"|.	c #8AB312",
"1.	c #8AB215",
"2.	c #96A55D",
"3.	c #B6AE9A",
"4.	c #ADA59F",
"5.	c #B6A99E",
"6.	c #E2CEBF",
"7.	c #DFCEC1",
"8.	c #C1B1A6",
"9.	c #BEA398",
"0.	c #B4A284",
"a.	c #91935B",
"b.	c #99A954",
"c.	c #8BB216",
"d.	c #87A92B",
"e.	c #A7A77A",
"f.	c #CEBDAE",
"g.	c #DECABC",
"h.	c #D5C1B6",
"i.	c #DCC7B9",
"j.	c #DFC8BA",
"k.	c #C1A396",
"l.	c #9A936A",
"m.	c #9DA165",
"n.	c #A0AB5E",
"o.	c #89AE1D",
"p.	c #89B212",
"q.	c #88AE19",
"r.	c #96A84F",
"s.	c #B2B970",
"t.	c #A39F7C",
"u.	c #C5B4A5",
"v.	c #D6BEB1",
"w.	c #D4BBAE",
"x.	c #BDA193",
"y.	c #968C67",
"z.	c #909358",
"A.	c #999E60",
"B.	c #A8B267",
"C.	c #8DAF2A",
"D.	c #89AF18",
"E.	c #8FAA3C",
"F.	c #9FAA5F",
"G.	c #D3DA86",
"H.	c #BCC277",
"I.	c #92985A",
"J.	c #958A67",
"K.	c #8C5D6D",
"L.	c #9B727A",
"M.	c #A88082",
"N.	c #986C7E",
"O.	c #908765",
"P.	c #979B5C",
"Q.	c #9CA65D",
"R.	c #85AA1A",
"S.	c #89B013",
"T.	c #88A533",
"U.	c #AEB86B",
"V.	c #CED584",
"W.	c #D1D884",
"X.	c #AAB066",
"Y.	c #A19870",
"Z.	c #AE7D89",
"`.	c #AB5B7A",
" +	c #BC5B88",
".+	c #A95C7C",
"++	c #A37183",
"@+	c #AC7B92",
"#+	c #9C8E70",
"$+	c #9BAA57",
"%+	c #89B012",
"&+	c #8CB715",
"*+	c #8AB019",
"=+	c #A4B55C",
"-+	c #D3DA84",
";+	c #D4DB85",
">+	c #BAC071",
",+	c #A0A65D",
"'+	c #9D8E6C",
")+	c #B4947D",
"!+	c #BA9A82",
"~+	c #B18677",
"{+	c #B79A85",
"]+	c #AF8A77",
"^+	c #B18292",
"/+	c #8C7C67",
"(+	c #88A13C",
"_+	c #94B218",
":+	c #8CB313",
"<+	c #8AAE20",
"[+	c #B4BF6B",
"}+	c #D6DD86",
"|+	c #CDD380",
"1+	c #B6BD6E",
"2+	c #A0A560",
"3+	c #A19575",
"4+	c #B38D5C",
"5+	c #CCA653",
"6+	c #C9A14A",
"7+	c #B48C50",
"8+	c #B38F64",
"9+	c #C7ADA0",
"0+	c #87825C",
"a+	c #86AB17",
"b+	c #8EB314",
"c+	c #D1AD45",
"d+	c #97B41E",
"e+	c #8BB023",
"f+	c #B8C36D",
"g+	c #CED580",
"h+	c #B0B66A",
"i+	c #A1A760",
"j+	c #A1A67A",
"k+	c #AA9A99",
"l+	c #B36181",
"m+	c #B17A55",
"n+	c #A65F63",
"o+	c #A1527C",
"p+	c #9F8788",
"q+	c #D0BCAE",
"r+	c #9B9374",
"s+	c #8AB218",
"t+	c #90B518",
"u+	c #8BB213",
"v+	c #93B03D",
"w+	c #C7D07C",
"x+	c #B4BB6F",
"y+	c #9EA35D",
"z+	c #9DA36D",
"A+	c #BCC4BB",
"B+	c #B4A5AF",
"C+	c #C55894",
"D+	c #C95695",
"E+	c #C54E93",
"F+	c #A74B8A",
"G+	c #8E7C7B",
"H+	c #A0A697",
"I+	c #B6C6BF",
"J+	c #88AE35",
"K+	c #8DB619",
"L+	c #8CB51C",
"M+	c #8CB614",
"N+	c #89B016",
"O+	c #93A84A",
"P+	c #AAB661",
"Q+	c #96A054",
"R+	c #8D945A",
"S+	c #B5BDB4",
"T+	c #BCCAC4",
"U+	c #937A7B",
"V+	c #C65794",
"W+	c #CD5596",
"X+	c #C85094",
"Y+	c #A74086",
"Z+	c #7B734B",
"`+	c #8DA869",
" @	c #CBD9D6",
".@	c #94AE84",
"+@	c #89B01A",
"@@	c #9CBD55",
"#@	c #B0C572",
"$@	c #89AF1C",
"%@	c #8BA94E",
"&@	c #95AA79",
"*@	c #A7B5A5",
"=@	c #B7C8BF",
"-@	c #8BA56C",
";@	c #8D7856",
">@	c #BD5F8A",
",@	c #C55C90",
"'@	c #BD4F90",
")@	c #A55D76",
"!@	c #8B863A",
"~@	c #89AE27",
"{@	c #B1C2AF",
"]@	c #B8C9C2",
"^@	c #84A54E",
"/@	c #90B435",
"(@	c #D0D19F",
"_@	c #9FBE5D",
":@	c #8EB424",
"<@	c #8AB11D",
"[@	c #92AB75",
"}@	c #AFBFBA",
"|@	c #9DB19F",
"1@	c #8AAC54",
"2@	c #89AE1F",
"3@	c #9A8944",
"4@	c #B78C5B",
"5@	c #C69156",
"6@	c #A46765",
"7@	c #AF8352",
"8@	c #A28B30",
"9@	c #89AC13",
"0@	c #8CAE4C",
"a@	c #B5C6B8",
"b@	c #A2B89A",
"c@	c #8BAE3E",
"d@	c #BFCA9D",
"e@	c #90B537",
"f@	c #90B62E",
"g@	c #97BA4A",
"h@	c #8BB12B",
"i@	c #9DB092",
"j@	c #A1B5AE",
"k@	c #84A45B",
"l@	c #8BB314",
"m@	c #86A926",
"n@	c #8F7F4F",
"o@	c #AD8A46",
"p@	c #B18833",
"q@	c #987339",
"r@	c #A17854",
"s@	c #7E7657",
"t@	c #87AC15",
"u@	c #92B35A",
"v@	c #AEC0AF",
"w@	c #A7B8AE",
"x@	c #88A36D",
"y@	c #8BB517",
"z@	c #C5CF97",
"A@	c #C2CC90",
"B@	c #8CB41A",
"C@	c #89B01D",
"D@	c #83A24B",
"E@	c #7A994F",
"F@	c #85A931",
"G@	c #8DB718",
"H@	c #92A758",
"I@	c #B192A6",
"J@	c #816976",
"K@	c #877069",
"L@	c #725F84",
"M@	c #A27497",
"N@	c #917D84",
"O@	c #87AC22",
"P@	c #8BB21B",
"Q@	c #A1B88D",
"R@	c #ACBBB6",
"S@	c #92AB85",
"T@	c #8BB319",
"U@	c #8CB414",
"V@	c #98BC47",
"W@	c #98BA4B",
"X@	c #89B218",
"Y@	c #8AB216",
"Z@	c #8BB21E",
"`@	c #A7A28A",
" #	c #BB97B4",
".#	c #ACA4C5",
"+#	c #B2B0CF",
"@#	c #9C91B6",
"##	c #AC7FA5",
"$#	c #9B7D93",
"%#	c #86A637",
"&#	c #8BB318",
"*#	c #8AB21A",
"=#	c #87A45D",
"-#	c #819870",
";#	c #7F9E4E",
">#	c #8EAC44",
",#	c #C6A7B8",
"'#	c #AF8DAF",
")#	c #A095B9",
"!#	c #ACA5C5",
"~#	c #9481AA",
"{#	c #B085AA",
"]#	c #A3819C",
"^#	c #C4C3A0",
"/#	c #99BA4C",
"(#	c #89B01B",
"_#	c #88AF22",
":#	c #A4A086",
"<#	c #D6AFCB",
"[#	c #98769E",
"}#	c #99738E",
"|#	c #99758F",
"1#	c #826698",
"2#	c #B489AF",
"3#	c #A37E9F",
"4#	c #87A047",
"5#	c #89B112",
"6#	c #87AF12",
"7#	c #8BB316",
"8#	c #8B9F52",
"9#	c #CFAAC2",
"0#	c #CFA7C3",
"a#	c #937194",
"b#	c #9E819C",
"c#	c #A07C8E",
"d#	c #916488",
"e#	c #BC90B6",
"f#	c #A980A5",
"g#	c #7C9243",
"h#	c #8AB313",
"i#	c #8AB113",
"j#	c #8AAB40",
"k#	c #B49CA8",
"l#	c #D0A9C6",
"m#	c #C19BBA",
"n#	c #A69EBF",
"o#	c #B5B3D2",
"p#	c #AEAACC",
"q#	c #977296",
"r#	c #C093BA",
"s#	c #AF84AC",
"t#	c #7D8955",
"u#	c #89AE22",
"v#	c #8D8F7B",
"w#	c #9D83AA",
"x#	c #B797C5",
"y#	c #A687AF",
"z#	c #9591BC",
"A#	c #9E9BC3",
"B#	c #9187B3",
"C#	c #8F6C95",
"D#	c #A783B3",
"E#	c #9575A9",
"F#	c #747B69",
"G#	c #8CB515",
"H#	c #98A569",
"I#	c #B294AA",
"J#	c #C09CBC",
"K#	c #C5A1CA",
"L#	c #A987AD",
"M#	c #8474A4",
"N#	c #85719E",
"O#	c #A47EA4",
"P#	c #B08EB6",
"Q#	c #A582B3",
"R#	c #A17CAE",
"S#	c #877685",
"T#	c #86AD1E",
"U#	c #91B838",
"V#	c #98BA4A",
"W#	c #89B213",
"X#	c #8A9B58",
"Y#	c #897B78",
"Z#	c #B594AA",
"`#	c #BB98B2",
" $	c #C3A0BA",
".$	c #9D7997",
"+$	c #B48EAB",
"@$	c #C9A3BF",
"#$	c #CBA6C1",
"$$	c #AA88A4",
"%$	c #9D8196",
"&$	c #877D75",
"*$	c #82A61B",
"=$	c #99B953",
"-$	c #BDC987",
";$	c #8DB715",
">$	c #89B113",
",$	c #88AF19",
"'$	c #8AAE27",
")$	c #88AA2F",
"!$	c #85A33A",
"~$	c #7C9737",
"{$	c #839E3C",
"]$	c #88A63E",
"^$	c #8CAC3D",
"/$	c #8AAD2D",
"($	c #89AE21",
"_$	c #8DB421",
":$	c #8DB420",
"<$	c #B2C679",
"          .             +             @ #   $ % &               ",
"                      * = - ; > , ' ) ! ~     { ] ^             ",
"    / (               _ : < [ } | 1 2 3 4 5                     ",
"                #   ~ 6 7 8 9 0 a b c d e f g       h i   @     ",
"    - j k l m = n   o p q r s t u v w x y z A           @ #     ",
"  B C D E F G   H   I J K L M N O P Q R S T U #                 ",
"- V W   X Y Z   (   `  ...+.@.#.$.%.&.*.=.-.;.          *       ",
"                /   >.,.'.).!.~.{.].^./.(._.:.    <.      #     ",
"^     [.}.|.*       1.2.3.4.5.6.7.8.9.0.a.b.c.    (   @ ( #   # ",
"      ( /   ]     ( + d.e.f.g.h.i.j.k.l.m.n.o.    ^ p.  ]       ",
"                + - q.r.s.t.u.v.w.x.y.z.A.B.C.    ( + H   H     ",
"  i             D.E.F.G.H.I.J.K.L.M.N.O.P.Q.R.<.          . S.  ",
"  ( .         = T.U.V.W.X.Y.Z.`. +.+++@+#+$+> ( #               ",
"    %+  &+    *+=+-+;+>+,+'+)+!+~+{+]+^+/+(+-                   ",
"        _+:+  <+[+}+|+1+2+3+4+5+6+7+8+9+0+a+        <.    / (   ",
"      b+c+d+  e+f+g+h+i+j+k+l+m+n+o+p+q+r+s+          # /       ",
"  H H   t+  u+v+w+x+y+z+A+B+C+D+E+F+G+H+I+J+/     K+L+M+j       ",
"  = H   M+  N+O+P+Q+R+S+T+U+V+W+X+Y+Z+`+ @.@+@  $ @@#@-     / ^ ",
"        /     $@%@&@*@=@-@;@>@,@'@)@!@~@{@]@^@/@(@_@:@      - i ",
"  &+          <@[@}@|@1@2@3@4@5@6@7@8@9@0@a@b@c@d@e@:.          ",
"  f@g@    +   h@i@j@k@l@m@n@o@p@q@r@s@t@; u@v@w@x@y@H           ",
"Z z@A@B@i     C@D@E@F@G@H@I@J@K@L@M@N@O@  P@Q@R@S@T@        i   ",
"U@V@W@- ( #     X@Y@  Z@`@ #.#+#@###$#%#&#*#=#-#;#> j     / (   ",
"      / &+    (       >#,#'#)#!#~#{#]#^#/#- (#_#Y@  #           ",
"              ^     ' :#<#[#}#|#1#2#3#4#Z               5#6#    ",
"                [.7#8#9#0#a#b#c#d#e#f#g#h#h / ]     / *         ",
"        6#5#    i#j#k#l#m#n#o#p#q#r#s#t#u+                (     ",
":.              u#v#w#x#y#z#A#B#C#D#E#F#Y@            G#  #     ",
"H # @ / #     > H#I#J#K#L#M#N#O#P#Q#R#S#T#            U#V#l@    ",
"      6#W#    (#X#Y#Z#`# $.$+$@$#$$$%$&$*$            =$-$B@    ",
";$>$            1.,$'$)$!$~${$]$^$/$($!   i   -       l@_$      ",
"  6#                            #     / ^ ] :$<$C   *           "};
